<?xml version="1.0" encoding="UTF-8" standalone="no"?>
<!-- Created with Inkscape (http://www.inkscape.org/) -->

<svg
   xmlns:dc="http://purl.org/dc/elements/1.1/"
   xmlns:cc="http://creativecommons.org/ns#"
   xmlns:rdf="http://www.w3.org/1999/02/22-rdf-syntax-ns#"
   xmlns:svg="http://www.w3.org/2000/svg"
   xmlns="http://www.w3.org/2000/svg"
   xmlns:sodipodi="http://sodipodi.sourceforge.net/DTD/sodipodi-0.dtd"
   xmlns:inkscape="http://www.inkscape.org/namespaces/inkscape"
   width="364.36188"
   height="341.30475"
   viewBox="0 0 96.404077 90.303545"
   version="1.1"
   id="svg4664"
   inkscape:version="0.92.1 r15371"
   sodipodi:docname="taupi.svg">
  <sodipodi:namedview
     id="base"
     pagecolor="#ffffff"
     bordercolor="#666666"
     borderopacity="1.0"
     inkscape:pageopacity="0.0"
     inkscape:pageshadow="2"
     inkscape:zoom="1.979899"
     inkscape:cx="124.78739"
     inkscape:cy="170.24478"
     inkscape:document-units="mm"
     inkscape:current-layer="layer3"
     showgrid="false"
     units="px"
     inkscape:window-width="1920"
     inkscape:window-height="1001"
     inkscape:window-x="0"
     inkscape:window-y="0"
     inkscape:window-maximized="1"
     inkscape:object-paths="true"
     inkscape:snap-intersection-paths="true"
     inkscape:snap-smooth-nodes="true"
     inkscape:snap-midpoints="true"
     inkscape:snap-object-midpoints="true"
     inkscape:snap-center="false"
     inkscape:snap-text-baseline="false"
     inkscape:snap-page="true"
     fit-margin-top="10"
     fit-margin-left="10"
     fit-margin-right="10"
     fit-margin-bottom="10" />
  <defs
     id="defs4658" />
  <metadata
     id="metadata4661">
    <rdf:RDF>
      <cc:Work
         rdf:about="">
        <dc:format>image/svg+xml</dc:format>
        <dc:type
           rdf:resource="http://purl.org/dc/dcmitype/StillImage" />
        <dc:title></dc:title>
      </cc:Work>
    </rdf:RDF>
  </metadata>
  <g
     transform="translate(-11.127104,-198.88328)"
     id="layer1"
     inkscape:groupmode="layer"
     inkscape:label="Both">
    <circle
       style="opacity:1;fill:none;fill-opacity:1;fill-rule:nonzero;stroke:#000000;stroke-width:0.28231043;stroke-linecap:round;stroke-linejoin:miter;stroke-miterlimit:4;stroke-dasharray:none;stroke-dashoffset:0;stroke-opacity:1"
       id="path5353"
       cx="52.916664"
       cy="244.08333"
       r="26.192415" />
    <path
       style="fill:none;fill-rule:evenodd;stroke:#000000;stroke-width:0.26458332px;stroke-linecap:butt;stroke-linejoin:miter;stroke-opacity:1"
       d="m 86.060787,244.08333 -66.288246,1e-5"
       id="path5376"
       inkscape:connector-curvature="0" />
    <path
       style="fill:none;fill-rule:evenodd;stroke:#000000;stroke-width:0.26458332px;stroke-linecap:butt;stroke-linejoin:miter;stroke-opacity:1"
       d="M 81.620316,227.51127 52.916665,244.08334"
       id="path5376-9"
       inkscape:connector-curvature="0"
       sodipodi:nodetypes="cc" />
    <path
       style="fill:none;fill-rule:evenodd;stroke:#000000;stroke-width:0.26458332px;stroke-linecap:butt;stroke-linejoin:miter;stroke-opacity:1"
       d="M 76.353096,220.6469 52.916665,244.08333"
       id="path5376-0"
       inkscape:connector-curvature="0"
       sodipodi:nodetypes="cc" />
    <path
       style="fill:none;fill-rule:evenodd;stroke:#000000;stroke-width:0.26458332px;stroke-linecap:butt;stroke-linejoin:miter;stroke-opacity:1"
       d="M 69.488723,215.37968 52.91667,244.08333"
       id="path5376-8"
       inkscape:connector-curvature="0"
       sodipodi:nodetypes="cc" />
    <path
       style="fill:none;fill-rule:evenodd;stroke:#000000;stroke-width:0.26458332px;stroke-linecap:butt;stroke-linejoin:miter;stroke-opacity:1"
       d="m 52.91666,210.93921 1e-5,66.28825"
       id="path5376-1"
       inkscape:connector-curvature="0" />
    <path
       style="fill:none;fill-rule:evenodd;stroke:#000000;stroke-width:0.26458332px;stroke-linecap:butt;stroke-linejoin:miter;stroke-opacity:1"
       d="m 36.344599,215.37968 16.572066,28.70365"
       id="path5376-6"
       inkscape:connector-curvature="0"
       sodipodi:nodetypes="cc" />
    <g
       transform="translate(47.106414,202.01308)"
       id="g5572">
      <path
         style="font-style:normal;font-variant:normal;font-weight:normal;font-stretch:normal;letter-spacing:normal;word-spacing:normal;text-anchor:start;fill:#000000;fill-opacity:1;fill-rule:evenodd;stroke:#000000;stroke-width:0;stroke-linecap:butt;stroke-linejoin:miter;stroke-miterlimit:10.43299961;stroke-dasharray:none;stroke-dashoffset:0;stroke-opacity:1"
         inkscape:connector-curvature="0"
         d="m 44.818906,42.009785 v -0.111881 l -0.0015,-0.113393 -0.003,-0.113393 -0.006,-0.111881 -0.006,-0.113393 -0.0091,-0.111881 -0.01209,-0.111881 -0.01361,-0.110369 -0.01814,-0.110369 -0.02117,-0.110369 -0.02419,-0.108857 -0.02873,-0.108857 -0.03175,-0.108857 -0.0378,-0.105834 -0.04233,-0.105833 -0.02268,-0.05292 -0.02419,-0.0514 c -0.344714,-0.725715 -0.963083,-0.846667 -1.280583,-0.846667 -0.450548,0 -1.000881,0.196548 -1.310822,0.898071 -0.240392,0.520096 -0.27819,1.108227 -0.27819,1.709965 0,0.565452 0.03024,1.242786 0.340179,1.814286 0.323547,0.609297 0.873881,0.760488 1.242785,0.760488 v -0.164798 c -0.293309,0 -0.739321,-0.188988 -0.875393,-0.911679 -0.08164,-0.450547 -0.08164,-1.143 -0.08164,-1.590523 0,-0.480786 0,-0.976691 0.06048,-1.383393 0.142119,-0.898072 0.707571,-0.964596 0.896559,-0.964596 0.247953,0 0.745369,0.13456 0.887488,0.881441 0.0756,0.420309 0.0756,0.994833 0.0756,1.466548 0,0.566964 0,1.077988 -0.08315,1.560285 -0.113393,0.715131 -0.542774,0.941917 -0.879929,0.941917 v 0 0.164798 c 0.405191,0 0.976691,-0.157238 1.310822,-0.873881 0.240393,-0.518584 0.27819,-1.105203 0.27819,-1.700893 z"
         id="path5716" />
      <path
         style="font-style:normal;font-variant:normal;font-weight:normal;font-stretch:normal;letter-spacing:normal;word-spacing:normal;text-anchor:start;fill:#000000;fill-opacity:1;fill-rule:evenodd;stroke:#000000;stroke-width:0;stroke-linecap:butt;stroke-linejoin:miter;stroke-miterlimit:10.43299961;stroke-dasharray:none;stroke-dashoffset:0;stroke-opacity:1"
         inkscape:connector-curvature="0"
         d="m 46.655871,44.412202 -0.0015,-0.04536 -0.0015,-0.04536 -0.003,-0.04384 -0.003,-0.04233 -0.0045,-0.04082 -0.006,-0.03931 -0.0076,-0.03931 -0.0076,-0.03629 -0.0091,-0.03628 -0.0091,-0.03477 -0.01058,-0.03326 -0.0121,-0.03175 -0.0121,-0.03024 -0.01361,-0.02873 -0.01361,-0.02873 -0.01663,-0.0257 -0.01512,-0.02419 -0.01663,-0.02419 -0.01814,-0.02117 -0.01814,-0.01966 -0.01966,-0.01966 -0.02117,-0.01663 -0.02117,-0.01512 -0.02117,-0.01512 -0.02268,-0.01209 -0.02268,-0.01058 -0.02419,-0.0091 -0.02419,-0.0076 -0.0257,-0.006 -0.0257,-0.0045 -0.02721,-0.0015 -0.02721,-0.0015 c -0.247952,0 -0.399143,0.188988 -0.399143,0.399143 0,0.202595 0.151191,0.399143 0.399143,0.399143 0.0892,0 0.188988,-0.03024 0.264583,-0.09676 0.02117,-0.01663 0.03024,-0.02419 0.0378,-0.02419 0.0076,0 0.01361,0.0076 0.01361,0.113392 0,0.557893 -0.261559,1.009953 -0.512536,1.257905 -0.08315,0.08164 -0.08315,0.09827 -0.08315,0.119441 0,0.05443 0.0378,0.08316 0.07559,0.08316 0.08315,0 0.686405,-0.57906 0.686405,-1.4605 z"
         id="path5718" />
    </g>
    <polyline
       style="font-style:normal;font-variant:normal;font-weight:normal;font-stretch:normal;letter-spacing:normal;word-spacing:normal;text-anchor:start;fill:#000000;fill-opacity:1;fill-rule:nonzero;stroke:#000000;stroke-width:0;stroke-linecap:butt;stroke-linejoin:miter;stroke-miterlimit:10.43299961;stroke-dasharray:none;stroke-dashoffset:0;stroke-opacity:1"
       points="462,418 486.6,418 486.6,420.04 462,420.04 "
       id="polyline6299"
       transform="matrix(0.15119048,0,0,-0.15119048,-18.640282,268.17084)" />
    <polyline
       style="font-style:normal;font-variant:normal;font-weight:normal;font-stretch:normal;letter-spacing:normal;word-spacing:normal;text-anchor:start;fill:#000000;fill-opacity:1;fill-rule:nonzero;stroke:#000000;stroke-width:0;stroke-linecap:butt;stroke-linejoin:miter;stroke-miterlimit:10.43299961;stroke-dasharray:none;stroke-dashoffset:0;stroke-opacity:1"
       id="polyline6473"
       points="486,418 510.6,418 510.6,420.04 486,420.04 "
       transform="matrix(0.15119048,0,0,-0.15119048,-39.038974,272.50548)" />
    <path
       style="font-style:normal;font-variant:normal;font-weight:normal;font-stretch:normal;letter-spacing:normal;word-spacing:normal;text-anchor:start;fill:#000000;fill-opacity:1;fill-rule:evenodd;stroke:#000000;stroke-width:0;stroke-linecap:butt;stroke-linejoin:miter;stroke-miterlimit:10.43299961;stroke-dasharray:none;stroke-dashoffset:0;stroke-opacity:1"
       inkscape:connector-curvature="0"
       id="path6475"
       d="m 36.312849,211.92648 0.03931,0.002 0.0378,0.002 0.03629,0.005 0.03629,0.006 0.03477,0.008 0.03477,0.009 0.03326,0.0106 0.03175,0.0121 0.03175,0.0151 0.03024,0.0151 0.03024,0.0182 0.02873,0.0181 0.02721,0.0212 0.0257,0.0227 0.0257,0.0242 0.02419,0.0257 0.02268,0.0272 0.02117,0.0287 0.02117,0.0317 0.01814,0.0317 0.01814,0.0348 0.01663,0.0348 0.01512,0.0378 0.01361,0.0378 0.0121,0.0408 0.01058,0.0423 0.0091,0.0438 0.0076,0.0454 0.006,0.0469 0.003,0.0484 0.003,0.0514 0.0015,0.0514 c 0,0.65465 -0.381,0.84818 -0.684893,0.84818 -0.211667,0 -0.675822,-0.0575 -0.89656,-0.36891 0.246441,-0.009 0.305405,-0.18445 0.305405,-0.29482 0,-0.16782 -0.127,-0.28877 -0.290286,-0.28877 -0.146654,0 -0.296333,0.0907 -0.296333,0.3054 0,0.49591 0.548822,0.81643 1.186845,0.81643 0.731762,0 1.23825,-0.49137 1.23825,-1.01751 0,-0.41124 -0.335643,-0.82248 -0.917726,-0.94192 0.553357,-0.20108 0.754441,-0.59569 0.754441,-0.91773 0,-0.41577 -0.479274,-0.72722 -1.062869,-0.72722 -0.586619,0 -1.032631,0.28575 -1.032631,0.70606 0,0.17991 0.114904,0.2797 0.273654,0.2797 0.163286,0 0.267608,-0.12095 0.267608,-0.26761 0,-0.15421 -0.104322,-0.26458 -0.267608,-0.27365 0.184453,-0.23435 0.545798,-0.29029 0.742346,-0.29029 0.235857,0 0.568476,0.11491 0.568476,0.57301 0,0.22225 -0.07257,0.46416 -0.210155,0.62593 -0.173869,0.20109 -0.320524,0.21318 -0.585107,0.22679 -0.133048,0.0121 -0.142119,0.0121 -0.167822,0.0166 -0.0121,0 -0.05443,0.0106 -0.05443,0.0696 0,0.0726 0.04687,0.0726 0.136071,0.0726 z" />
    <path
       style="font-style:normal;font-variant:normal;font-weight:normal;font-stretch:normal;letter-spacing:normal;word-spacing:normal;text-anchor:start;fill:#000000;fill-opacity:1;fill-rule:evenodd;stroke:#000000;stroke-width:0;stroke-linecap:butt;stroke-linejoin:miter;stroke-miterlimit:10.43299961;stroke-dasharray:none;stroke-dashoffset:0;stroke-opacity:1"
       inkscape:connector-curvature="0"
       id="path7519"
       d="m 50.871624,281.29616 0.05745,-0.0197 0.05594,-0.0227 0.05594,-0.0227 0.05292,-0.0257 0.05292,-0.0272 0.05141,-0.0287 0.04989,-0.0302 0.04838,-0.0333 0.04687,-0.0333 0.04687,-0.0348 0.04384,-0.0363 0.04233,-0.0378 0.04082,-0.0393 0.03931,-0.0408 0.0378,-0.0408 0.03629,-0.0438 0.03326,-0.0439 0.03175,-0.0454 0.03024,-0.0454 0.02873,-0.0484 0.02721,-0.0484 0.02419,-0.0484 0.02117,-0.0499 0.02117,-0.0514 0.01663,-0.0514 0.01663,-0.0514 0.01361,-0.0529 0.01058,-0.0544 0.0091,-0.0544 0.006,-0.0544 0.003,-0.0544 0.0015,-0.0559 c 0,-0.61686 -0.663726,-1.0402 -1.386417,-1.0402 -0.760488,0 -1.331988,0.45358 -1.331988,1.02508 0,0.24946 0.164798,0.39309 0.384024,0.39309 0.231321,0 0.382512,-0.16631 0.382512,-0.38553 0,-0.37496 -0.353786,-0.37496 -0.464155,-0.37496 0.231322,-0.3689 0.728738,-0.46869 1.000881,-0.46869 0.306917,0 0.722691,0.16631 0.722691,0.84365 0,0.0922 -0.01663,0.52765 -0.211667,0.86027 -0.225274,0.36135 -0.482298,0.38251 -0.669774,0.39158 -0.06048,0.008 -0.240393,0.0212 -0.294821,0.0212 -0.05897,0.008 -0.113393,0.0151 -0.113393,0.0907 0,0.0816 0.05443,0.0816 0.181428,0.0816 h 0.331108 c 0.61988,0 0.898071,0.51253 0.898071,1.25337 0,1.02204 -0.520095,1.24127 -0.852714,1.24127 -0.323548,0 -0.887488,-0.127 -1.15056,-0.5715 0.263072,0.0363 0.495905,-0.13002 0.495905,-0.41577 0,-0.27063 -0.202595,-0.42031 -0.421822,-0.42031 -0.179916,0 -0.421821,0.10432 -0.421821,0.43694 0,0.68489 0.700012,1.18079 1.522488,1.18079 0.917726,0 1.602619,-0.68489 1.602619,-1.45142 0,-0.61988 -0.473226,-1.20499 -1.256393,-1.36374 z" />
    <polyline
       style="font-style:normal;font-variant:normal;font-weight:normal;font-stretch:normal;letter-spacing:normal;word-spacing:normal;text-anchor:start;display:inline;fill:#000000;fill-opacity:1;fill-rule:nonzero;stroke:#000000;stroke-width:0;stroke-linecap:butt;stroke-linejoin:miter;stroke-miterlimit:10.43299961;stroke-dasharray:none;stroke-dashoffset:0;stroke-opacity:1"
       id="polyline6143"
       points="462,418 486.6,418 486.6,420.04 462,420.04 "
       transform="matrix(0.15119048,0,0,-0.15119048,0.56715643,274.98272)" />
    <polyline
       style="font-style:normal;font-variant:normal;font-weight:normal;font-stretch:normal;letter-spacing:normal;word-spacing:normal;text-anchor:start;fill:#000000;fill-opacity:1;fill-rule:nonzero;stroke:#000000;stroke-width:0;stroke-linecap:butt;stroke-linejoin:miter;stroke-miterlimit:10.43299961;stroke-dasharray:none;stroke-dashoffset:0;stroke-opacity:1"
       id="polyline5880"
       points="462,418 486.6,418 486.6,420.04 462,420.04 "
       transform="matrix(0.15119048,0,0,-0.15119048,8.069047,281.9021)" />
  </g>
  <g
     style="display:inline"
     inkscape:label="{tau}"
     id="layer2"
     inkscape:groupmode="layer"
     transform="translate(-11.127104,-7.7166072)">
    <path
       style="font-style:normal;font-variant:normal;font-weight:normal;font-stretch:normal;letter-spacing:normal;word-spacing:normal;text-anchor:start;fill:#000000;fill-opacity:1;fill-rule:evenodd;stroke:#000000;stroke-width:0;stroke-linecap:butt;stroke-linejoin:miter;stroke-miterlimit:10.43299961;stroke-dasharray:none;stroke-dashoffset:0;stroke-opacity:1"
       inkscape:connector-curvature="0"
       d="m 99.197581,52.457052 h 1.266979 c 0.0983,0 0.36739,0 0.36739,-0.257024 0,-0.179917 -0.15724,-0.179917 -0.29936,-0.179917 h -2.109104 c -0.151191,0 -0.4445,0 -0.775608,0.355298 -0.249464,0.269119 -0.459619,0.630464 -0.459619,0.677333 0,0.0076 0,0.07257 0.0892,0.07257 0.06199,0 0.0756,-0.02721 0.120952,-0.0892 0.370417,-0.579059 0.798286,-0.579059 0.957036,-0.579059 h 0.624417 l -0.73781,2.417536 c -0.02873,0.0892 -0.07408,0.247952 -0.07408,0.27819 0,0.08316 0.0514,0.202595 0.217714,0.202595 0.247952,0 0.28575,-0.210154 0.30994,-0.323547 z"
       id="path5728" />
    <path
       style="font-style:normal;font-variant:normal;font-weight:normal;font-stretch:normal;letter-spacing:normal;word-spacing:normal;text-anchor:start;fill:#000000;fill-opacity:1;fill-rule:evenodd;stroke:#000000;stroke-width:0;stroke-linecap:butt;stroke-linejoin:miter;stroke-miterlimit:10.43299961;stroke-dasharray:none;stroke-dashoffset:0;stroke-opacity:1"
       inkscape:connector-curvature="0"
       id="path7521"
       d="m 55.174506,87.9085 h 0.981227 c 0.05594,0 0.27819,0 0.27819,-0.21016 0,-0.14665 -0.137583,-0.14665 -0.226786,-0.14665 h -1.658559 c -0.152703,0 -0.323548,0.0106 -0.595691,0.26307 -0.152702,0.13607 -0.34925,0.41729 -0.34925,0.45811 0,0.0635 0.06955,0.0635 0.09071,0.0635 0.05896,0 0.0635,-0.009 0.09374,-0.0559 0.269119,-0.37193 0.591154,-0.37193 0.712107,-0.37193 h 0.46869 l -0.521607,1.68729 c -0.0257,0.0847 -0.0257,0.0892 -0.0257,0.12095 0,0.14363 0.131536,0.16933 0.173869,0.16933 0.199571,0 0.237369,-0.19201 0.254,-0.26458 z" />
    <polyline
       style="font-style:normal;font-variant:normal;font-weight:normal;font-stretch:normal;letter-spacing:normal;word-spacing:normal;text-anchor:start;fill:#000000;fill-opacity:1;fill-rule:nonzero;stroke:#000000;stroke-width:0;stroke-linecap:butt;stroke-linejoin:miter;stroke-miterlimit:10.43299961;stroke-dasharray:none;stroke-dashoffset:0;stroke-opacity:1"
       id="polyline7523"
       points="564,418 586.44,418 586.44,420.04 564,420.04 "
       transform="matrix(0.15119048,0,0,-0.15119048,-31.976222,154.19343)" />
    <path
       style="font-style:normal;font-variant:normal;font-weight:normal;font-stretch:normal;letter-spacing:normal;word-spacing:normal;text-anchor:start;fill:#000000;fill-opacity:1;fill-rule:evenodd;stroke:#000000;stroke-width:0;stroke-linecap:butt;stroke-linejoin:miter;stroke-miterlimit:10.43299961;stroke-dasharray:none;stroke-dashoffset:0;stroke-opacity:1"
       inkscape:connector-curvature="0"
       id="path7525"
       d="m 56.355304,94.50948 v -0.18899 h -0.586619 v -2.3495 c 0,-0.10886 0,-0.14666 -0.114905,-0.14666 -0.0635,0 -0.08618,0 -0.137583,0.0726 l -1.743226,2.42359 v 0.18899 h 1.549702 l 0.03629,-0.18899 h -1.392465 l 1.392465,-1.92768 v 1.92768 l -0.03629,0.18899 v 0.4324 c 0,0.17992 0,0.24342 -0.427869,0.24342 h -0.140607 v 0.18899 c 0.261559,-0.009 0.598714,-0.0212 0.787702,-0.0212 0.196548,0 0.532191,0.0121 0.796774,0.0212 v -0.18899 h -0.142119 c -0.427869,0 -0.427869,-0.0635 -0.427869,-0.24342 v -0.4324 z" />
    <path
       style="font-style:normal;font-variant:normal;font-weight:normal;font-stretch:normal;letter-spacing:normal;word-spacing:normal;text-anchor:start;fill:#000000;fill-opacity:1;fill-rule:evenodd;stroke:#000000;stroke-width:0;stroke-linecap:butt;stroke-linejoin:miter;stroke-miterlimit:10.43299961;stroke-dasharray:none;stroke-dashoffset:0;stroke-opacity:1"
       inkscape:connector-curvature="0"
       id="path6477"
       d="m 36.33704,15.05388 h 0.981226 c 0.05594,0 0.278191,0 0.278191,-0.21016 0,-0.14665 -0.136072,-0.14665 -0.226786,-0.14665 h -1.65856 c -0.152702,0 -0.323547,0.0106 -0.594178,0.26307 -0.154214,0.13607 -0.350762,0.41729 -0.350762,0.45811 0,0.0635 0.06804,0.0635 0.09071,0.0635 0.05896,0 0.0635,-0.009 0.09374,-0.0559 0.269119,-0.37193 0.591155,-0.37193 0.710596,-0.37193 h 0.470202 l -0.521607,1.68729 c -0.0257,0.0847 -0.0257,0.0892 -0.0257,0.12095 0,0.14363 0.131536,0.16933 0.175381,0.16933 0.19806,0 0.235858,-0.19201 0.252488,-0.26458 z" />
    <path
       style="font-style:normal;font-variant:normal;font-weight:normal;font-stretch:normal;letter-spacing:normal;word-spacing:normal;text-anchor:start;fill:#000000;fill-opacity:1;fill-rule:evenodd;stroke:#000000;stroke-width:0;stroke-linecap:butt;stroke-linejoin:miter;stroke-miterlimit:10.43299961;stroke-dasharray:none;stroke-dashoffset:0;stroke-opacity:1"
       inkscape:connector-curvature="0"
       d="m 53.131351,10.719251 h 0.981227 c 0.05594,0 0.27819,0 0.27819,-0.21016 0,-0.14665 -0.137583,-0.14665 -0.226786,-0.14665 h -1.658559 c -0.152702,0 -0.323548,0.0106 -0.595691,0.26307 -0.152702,0.13607 -0.34925,0.41729 -0.34925,0.45811 0,0.0635 0.06955,0.0635 0.09071,0.0635 0.05896,0 0.0635,-0.009 0.09374,-0.0559 0.269119,-0.37193 0.591155,-0.37193 0.710595,-0.37193 h 0.470202 l -0.521607,1.68729 c -0.0257,0.0847 -0.0257,0.0892 -0.0257,0.12095 0,0.14363 0.131536,0.16933 0.173869,0.16933 0.199571,0 0.237369,-0.19201 0.254,-0.26458 z"
       id="path6303" />
    <path
       style="font-style:normal;font-variant:normal;font-weight:normal;font-stretch:normal;letter-spacing:normal;word-spacing:normal;text-anchor:start;fill:#000000;fill-opacity:1;fill-rule:evenodd;stroke:#000000;stroke-width:0;stroke-linecap:butt;stroke-linejoin:miter;stroke-miterlimit:10.43299961;stroke-dasharray:none;stroke-dashoffset:0;stroke-opacity:1"
       inkscape:connector-curvature="0"
       d="m 54.312151,17.320231 v -0.18899 h -0.586619 v -2.3495 c 0,-0.10886 0,-0.14666 -0.114905,-0.14666 -0.0635,0 -0.08618,0 -0.137583,0.0726 l -1.743226,2.42359 v 0.18899 h 1.549702 l 0.03477,-0.18899 h -1.390952 l 1.390952,-1.92768 v 1.92768 l -0.03477,0.18899 v 0.4324 c 0,0.17992 0,0.24342 -0.427869,0.24342 h -0.142119 v 0.18899 c 0.263071,-0.009 0.600226,-0.0212 0.789214,-0.0212 0.196548,0 0.532191,0.0121 0.796774,0.0212 v -0.18899 h -0.142119 c -0.427869,0 -0.427869,-0.0635 -0.427869,-0.24342 v -0.4324 z"
       id="path6307" />
    <g
       transform="translate(39.960366,18.758481)"
       id="g6015">
      <path
         id="path6005"
         d="m 45.549275,13.557792 h 0.981226 c 0.05594,0 0.278191,0 0.278191,-0.210155 0,-0.146655 -0.136072,-0.146655 -0.226786,-0.146655 h -1.658559 c -0.152703,0 -0.323548,0.01058 -0.594179,0.263072 -0.154214,0.136071 -0.350762,0.417285 -0.350762,0.458107 0,0.0635 0.06955,0.0635 0.09071,0.0635 0.05897,0 0.0635,-0.0091 0.09374,-0.05594 0.269119,-0.371928 0.591154,-0.371928 0.710595,-0.371928 h 0.470202 l -0.521607,1.687286 c -0.0257,0.08467 -0.0257,0.0892 -0.0257,0.120952 0,0.143631 0.131535,0.169333 0.175381,0.169333 0.198059,0 0.235857,-0.192012 0.252488,-0.264583 z"
         inkscape:connector-curvature="0"
         style="font-style:normal;font-variant:normal;font-weight:normal;font-stretch:normal;letter-spacing:normal;word-spacing:normal;text-anchor:start;fill:#000000;fill-opacity:1;fill-rule:evenodd;stroke:#000000;stroke-width:0;stroke-linecap:butt;stroke-linejoin:miter;stroke-miterlimit:10.43299961;stroke-dasharray:none;stroke-dashoffset:0;stroke-opacity:1" />
      <polyline
         id="polyline6007"
         points="515,418 554.72,418 554.72,420.04 515,420.04 "
         style="font-style:normal;font-variant:normal;font-weight:normal;font-stretch:normal;letter-spacing:normal;word-spacing:normal;text-anchor:start;fill:#000000;fill-opacity:1;fill-rule:nonzero;stroke:#000000;stroke-width:0;stroke-linecap:butt;stroke-linejoin:miter;stroke-miterlimit:10.43299961;stroke-dasharray:none;stroke-dashoffset:0;stroke-opacity:1"
         transform="matrix(0.15119048,0,0,-0.15119048,-35.378453,79.842722)" />
      <path
         id="path6009"
         d="m 44.200656,17.673197 v -0.006 -0.006 -0.006 -0.006 -0.006 -0.006 -0.006 -0.0045 -0.0045 l -0.0015,-0.006 v -0.0045 -0.0045 -0.0045 l -0.0015,-0.0045 v -0.003 -0.0045 l -0.0015,-0.0045 v -0.003 l -0.0015,-0.003 v -0.0045 l -0.003,-0.006 -0.0015,-0.006 -0.003,-0.0045 -0.003,-0.0045 -0.003,-0.0045 -0.003,-0.003 -0.0045,-0.0045 -0.0045,-0.003 -0.0045,-0.0015 -0.006,-0.003 -0.006,-0.0015 -0.0076,-0.0015 -0.006,-0.0015 -0.0045,-0.0015 h -0.0045 -0.003 l -0.0045,-0.0015 h -0.0045 -0.0045 -0.0045 -0.006 l -0.0045,-0.0015 h -0.006 -0.0045 -0.006 -0.006 -0.006 -0.006 -0.0076 -0.006 -0.0076 c -0.337155,0.332619 -0.814917,0.337155 -1.031119,0.337155 v 0.188988 c 0.127,0 0.474738,0 0.762,-0.145143 v 2.685143 c 0,0.175381 0,0.243417 -0.526143,0.243417 h -0.198059 v 0.188988 c 0.09374,-0.0045 0.740833,-0.02117 0.937381,-0.02117 0.163285,0 0.827012,0.01663 0.941916,0.02117 v -0.188988 h -0.199571 c -0.527655,0 -0.527655,-0.06804 -0.527655,-0.243417 z"
         inkscape:connector-curvature="0"
         style="font-style:normal;font-variant:normal;font-weight:normal;font-stretch:normal;letter-spacing:normal;word-spacing:normal;text-anchor:start;fill:#000000;fill-opacity:1;fill-rule:evenodd;stroke:#000000;stroke-width:0;stroke-linecap:butt;stroke-linejoin:miter;stroke-miterlimit:10.43299961;stroke-dasharray:none;stroke-dashoffset:0;stroke-opacity:1" />
      <path
         id="path6011"
         d="m 48.089275,20.06503 h -0.179916 c -0.01361,0.114905 -0.06804,0.427869 -0.136072,0.479274 -0.04082,0.03024 -0.447524,0.03024 -0.520095,0.03024 h -0.970643 c 0.551845,-0.488345 0.736298,-0.635 1.053798,-0.882952 0.388559,-0.311453 0.752928,-0.638024 0.752928,-1.138465 0,-0.638024 -0.557893,-1.028095 -1.233714,-1.028095 -0.651631,0 -1.096131,0.458107 -1.096131,0.941917 0,0.270631 0.226786,0.296333 0.281214,0.296333 0.125488,0 0.279703,-0.09071 0.279703,-0.279702 0,-0.09374 -0.0378,-0.278191 -0.312965,-0.278191 0.163286,-0.37344 0.523119,-0.488345 0.771072,-0.488345 0.526143,0 0.801309,0.408214 0.801309,0.836083 0,0.458107 -0.326571,0.820965 -0.497416,1.009953 l -1.268488,1.254881 c -0.05443,0.04687 -0.05443,0.05896 -0.05443,0.205619 h 2.171095 z"
         inkscape:connector-curvature="0"
         style="font-style:normal;font-variant:normal;font-weight:normal;font-stretch:normal;letter-spacing:normal;word-spacing:normal;text-anchor:start;fill:#000000;fill-opacity:1;fill-rule:evenodd;stroke:#000000;stroke-width:0;stroke-linecap:butt;stroke-linejoin:miter;stroke-miterlimit:10.43299961;stroke-dasharray:none;stroke-dashoffset:0;stroke-opacity:1" />
    </g>
    <path
       style="font-style:normal;font-variant:normal;font-weight:normal;font-stretch:normal;letter-spacing:normal;word-spacing:normal;text-anchor:start;fill:#000000;fill-opacity:1;fill-rule:evenodd;stroke:#000000;stroke-width:0;stroke-linecap:butt;stroke-linejoin:miter;stroke-miterlimit:10.43299961;stroke-dasharray:none;stroke-dashoffset:0;stroke-opacity:1"
       inkscape:connector-curvature="0"
       id="path6889"
       d="m 15.951591,50.06106 h 0.981226 c 0.05594,0 0.278191,0 0.278191,-0.21016 0,-0.14665 -0.136072,-0.14665 -0.226786,-0.14665 h -1.65856 c -0.152702,0 -0.323547,0.0106 -0.594178,0.26307 -0.154214,0.13607 -0.350762,0.41729 -0.350762,0.45811 0,0.0635 0.06955,0.0635 0.09071,0.0635 0.05897,0 0.0635,-0.009 0.09374,-0.0559 0.269119,-0.37193 0.591155,-0.37193 0.710596,-0.37193 h 0.470202 l -0.521607,1.68729 c -0.0257,0.0847 -0.0257,0.0892 -0.0257,0.12095 0,0.14363 0.131536,0.16933 0.175381,0.16933 0.19806,0 0.235858,-0.19201 0.252488,-0.26458 z" />
    <polyline
       style="font-style:normal;font-variant:normal;font-weight:normal;font-stretch:normal;letter-spacing:normal;word-spacing:normal;text-anchor:start;fill:#000000;fill-opacity:1;fill-rule:nonzero;stroke:#000000;stroke-width:0;stroke-linecap:butt;stroke-linejoin:miter;stroke-miterlimit:10.43299961;stroke-dasharray:none;stroke-dashoffset:0;stroke-opacity:1"
       id="polyline6891"
       points="508,418 530.44,418 530.44,420.04 508,420.04 "
       transform="matrix(0.15119048,0,0,-0.15119048,-62.708278,116.34599)" />
    <path
       style="font-style:normal;font-variant:normal;font-weight:normal;font-stretch:normal;letter-spacing:normal;word-spacing:normal;text-anchor:start;fill:#000000;fill-opacity:1;fill-rule:evenodd;stroke:#000000;stroke-width:0;stroke-linecap:butt;stroke-linejoin:miter;stroke-miterlimit:10.43299961;stroke-dasharray:none;stroke-dashoffset:0;stroke-opacity:1"
       inkscape:connector-curvature="0"
       id="path6893"
       d="m 17.003876,56.5683 h -0.178404 c -0.01512,0.1149 -0.06955,0.42787 -0.137583,0.47927 -0.03931,0.0302 -0.446012,0.0302 -0.520096,0.0302 h -0.970642 c 0.553357,-0.48835 0.737809,-0.635 1.053797,-0.88295 0.390072,-0.31145 0.752928,-0.63803 0.752928,-1.13847 0,-0.63802 -0.55638,-1.02809 -1.232202,-1.02809 -0.651631,0 -1.096131,0.45811 -1.096131,0.94191 0,0.27064 0.226786,0.29634 0.281215,0.29634 0.125488,0 0.27819,-0.0907 0.27819,-0.2797 0,-0.0937 -0.0378,-0.27819 -0.311452,-0.27819 0.163285,-0.37345 0.521607,-0.48835 0.769559,-0.48835 0.527655,0 0.80131,0.40821 0.80131,0.83608 0,0.45811 -0.326572,0.82097 -0.495905,1.00996 l -1.268488,1.25488 c -0.05443,0.0469 -0.05443,0.059 -0.05443,0.20562 h 2.171096 z" />
    <path
       style="font-style:normal;font-variant:normal;font-weight:normal;font-stretch:normal;letter-spacing:normal;word-spacing:normal;text-anchor:start;fill:#000000;fill-opacity:1;fill-rule:evenodd;stroke:#000000;stroke-width:0;stroke-linecap:butt;stroke-linejoin:miter;stroke-miterlimit:10.43299961;stroke-dasharray:none;stroke-dashoffset:0;stroke-opacity:1"
       inkscape:connector-curvature="0"
       id="path6147"
       d="m 72.338788,17.531126 h 0.981226 c 0.05594,0 0.278191,0 0.278191,-0.21016 0,-0.14665 -0.137583,-0.14665 -0.226787,-0.14665 H 71.71286 c -0.152702,0 -0.323548,0.0106 -0.595691,0.26307 -0.152702,0.13607 -0.34925,0.41729 -0.34925,0.45811 0,0.0635 0.06955,0.0635 0.09072,0.0635 0.05896,0 0.0635,-0.009 0.09374,-0.0559 0.269119,-0.37193 0.591155,-0.37193 0.710595,-0.37193 h 0.470202 l -0.521607,1.68729 c -0.0257,0.0847 -0.0257,0.0892 -0.0257,0.12095 0,0.14363 0.131536,0.16933 0.173869,0.16933 0.199571,0 0.237369,-0.19201 0.254,-0.26458 z" />
    <path
       style="font-style:normal;font-variant:normal;font-weight:normal;font-stretch:normal;letter-spacing:normal;word-spacing:normal;text-anchor:start;fill:#000000;fill-opacity:1;fill-rule:evenodd;stroke:#000000;stroke-width:0;stroke-linecap:butt;stroke-linejoin:miter;stroke-miterlimit:10.43299961;stroke-dasharray:none;stroke-dashoffset:0;stroke-opacity:1"
       inkscape:connector-curvature="0"
       id="path6151"
       d="m 71.52236,23.274856 0.0015,-0.0801 0.0015,-0.0801 0.0015,-0.0786 0.0045,-0.0771 0.006,-0.0756 0.0076,-0.0756 0.0091,-0.0741 0.0121,-0.0726 0.01361,-0.0711 0.01663,-0.0695 0.01966,-0.068 0.02117,-0.068 0.0121,-0.0318 0.01361,-0.0333 0.01361,-0.0317 0.01512,-0.0318 0.01512,-0.0317 0.01663,-0.0318 0.01814,-0.0302 0.01814,-0.0302 c 0.178405,-0.28575 0.462643,-0.47928 0.799798,-0.47928 0.15875,0 0.368904,0.0423 0.474738,0.18294 -0.131536,0.0106 -0.243417,0.0998 -0.243417,0.254 0,0.13154 0.09071,0.24796 0.249464,0.24796 0.157238,0 0.252488,-0.10735 0.252488,-0.25854 0,-0.30692 -0.22225,-0.58057 -0.743857,-0.58057 -0.758976,0 -1.533071,0.69699 -1.533071,1.82789 0,1.36676 0.641047,1.77649 1.223131,1.77649 0.642559,0 1.200453,-0.49137 1.200453,-1.1808 0,-0.66826 -0.532191,-1.16417 -1.149048,-1.16417 l -0.0257,0.14817 c 0.243417,0 0.406703,0.0952 0.536726,0.28878 0.127,0.20108 0.131536,0.42333 0.131536,0.72722 0,0.30087 0,0.52161 -0.142119,0.72723 -0.127,0.18445 -0.294821,0.28424 -0.551845,0.28424 v 0 c -0.264584,0 -0.470203,-0.15119 -0.582084,-0.38554 -0.07711,-0.15573 -0.11944,-0.42031 -0.11944,-0.7363 0,-0.51102 0.306917,-0.90563 0.727226,-0.90563 l 0.0257,-0.14817 c -0.42031,0 -0.651631,0.2782 -0.768048,0.51708 z" />
    <path
       style="font-style:normal;font-variant:normal;font-weight:normal;font-stretch:normal;letter-spacing:normal;word-spacing:normal;text-anchor:start;fill:#000000;fill-opacity:1;fill-rule:evenodd;stroke:#000000;stroke-width:0;stroke-linecap:butt;stroke-linejoin:miter;stroke-miterlimit:10.43299961;stroke-dasharray:none;stroke-dashoffset:0;stroke-opacity:1"
       inkscape:connector-curvature="0"
       id="path5884"
       d="m 79.840681,24.450499 h 0.981227 c 0.05594,0 0.27819,0 0.27819,-0.21016 0,-0.14665 -0.137583,-0.14665 -0.226786,-0.14665 h -1.658559 c -0.152702,0 -0.323548,0.0106 -0.595691,0.26307 -0.152702,0.13607 -0.34925,0.41729 -0.34925,0.45811 0,0.0635 0.06955,0.0635 0.09072,0.0635 0.05896,0 0.0635,-0.009 0.09374,-0.0559 0.269119,-0.37193 0.591155,-0.37193 0.710595,-0.37193 h 0.470202 l -0.521607,1.68729 c -0.0257,0.0847 -0.0257,0.0892 -0.0257,0.12095 0,0.14363 0.131536,0.16933 0.173869,0.16933 0.199571,0 0.237369,-0.19201 0.254,-0.26458 z" />
    <path
       style="font-style:normal;font-variant:normal;font-weight:normal;font-stretch:normal;letter-spacing:normal;word-spacing:normal;text-anchor:start;fill:#000000;fill-opacity:1;fill-rule:evenodd;stroke:#000000;stroke-width:0;stroke-linecap:butt;stroke-linejoin:miter;stroke-miterlimit:10.43299961;stroke-dasharray:none;stroke-dashoffset:0;stroke-opacity:1"
       inkscape:connector-curvature="0"
       id="path5888"
       d="m 80.105265,30.014309 0.0378,-0.0181 0.03629,-0.0197 0.03629,-0.0197 0.03629,-0.0197 0.03326,-0.0197 0.03477,-0.0212 0.03175,-0.0212 0.03175,-0.0212 0.03024,-0.0212 0.02873,-0.0227 0.02873,-0.0227 0.02721,-0.0227 0.0257,-0.0227 0.0257,-0.0242 0.02268,-0.0242 0.02268,-0.0242 0.02117,-0.0242 0.02117,-0.0257 0.01814,-0.0272 0.01814,-0.0257 0.01512,-0.0272 0.01512,-0.0272 0.01361,-0.0287 0.0121,-0.0287 0.01209,-0.0287 0.0091,-0.0302 0.0076,-0.0302 0.0076,-0.0302 0.0045,-0.0317 0.0045,-0.0333 0.0015,-0.0333 0.0015,-0.0333 c 0,-0.51254 -0.53219,-0.78619 -1.041702,-0.78619 l -0.0121,0.15421 c 0.411238,0 0.774095,0.25703 0.774095,0.63198 0,0.46869 -0.547309,0.70455 -0.556381,0.70455 -0.0121,0 -0.02117,-0.005 -0.05896,-0.0257 l -0.63804,-0.36889 c -0.137583,-0.0786 -0.284238,-0.22225 -0.284238,-0.41577 0,-0.33262 0.385536,-0.52615 0.763512,-0.52615 l 0.0121,-0.15421 c -0.582083,0 -1.053798,0.381 -1.053798,0.88144 0,0.24493 0.114905,0.42484 0.210155,0.53068 0.09374,0.11188 0.131536,0.13304 0.441476,0.3175 -0.294821,0.12549 -0.816428,0.41124 -0.816428,0.96308 0,0.5836 0.606274,0.91168 1.2065,0.91168 l 0.0121,-0.16933 c -0.486833,0 -0.902607,-0.30994 -0.902607,-0.74235 0,-0.39007 0.290286,-0.68943 0.668262,-0.86481 v 0 l 0.72269,0.41577 c 0.137584,0.0816 0.399143,0.23889 0.399143,0.54883 0,0.3946 -0.43694,0.64256 -0.887488,0.64256 l -0.0121,0.16933 c 0.668262,0 1.217083,-0.42636 1.217083,-0.99635 0,-0.34773 -0.205619,-0.64256 -0.511024,-0.82247 -0.06805,-0.04229 -0.252507,-0.146652 -0.325078,-0.188982 z" />
  </g>
  <g
     inkscape:label="{pi}"
     id="layer3"
     inkscape:groupmode="layer"
     style="display:inline"
     transform="translate(-11.127104,-7.7166072)">
    <path
       style="font-style:normal;font-variant:normal;font-weight:normal;font-stretch:normal;letter-spacing:normal;word-spacing:normal;text-anchor:start;fill:#000000;fill-opacity:1;fill-rule:evenodd;stroke:#000000;stroke-width:0;stroke-linecap:butt;stroke-linejoin:miter;stroke-miterlimit:10.43299961;stroke-dasharray:none;stroke-dashoffset:0;stroke-opacity:1"
       inkscape:connector-curvature="0"
       d="m 97.797559,54.6856 0.798286,-0.775608 c 1.17475,-1.038678 1.628325,-1.445381 1.628325,-2.198309 0,-0.860274 -0.678849,-1.463524 -1.596575,-1.463524 -0.854226,0 -1.410607,0.695476 -1.410607,1.36525 0,0.421821 0.377976,0.421821 0.399143,0.421821 0.130024,0 0.391583,-0.09071 0.391583,-0.399142 0,-0.196548 -0.134559,-0.393096 -0.399143,-0.393096 -0.05896,0 -0.07559,0 -0.09676,0.0076 0.172358,-0.489857 0.57906,-0.768048 1.016001,-0.768048 0.684892,0 1.011464,0.612322 1.011464,1.229179 0,0.601738 -0.377976,1.197428 -0.792238,1.664607 l -1.445381,1.611691 c -0.08467,0.08164 -0.08467,0.09676 -0.08467,0.27819 h 2.794003 l 0.21318,-1.310821 h -0.18899 c -0.0378,0.226785 -0.09072,0.557892 -0.166312,0.671285 -0.05443,0.05897 -0.550333,0.05897 -0.715131,0.05897 z"
       id="path5720" />
    <path
       style="font-style:normal;font-variant:normal;font-weight:normal;font-stretch:normal;letter-spacing:normal;word-spacing:normal;text-anchor:start;fill:#000000;fill-opacity:1;fill-rule:evenodd;stroke:#000000;stroke-width:0;stroke-linecap:butt;stroke-linejoin:miter;stroke-miterlimit:10.43299961;stroke-dasharray:none;stroke-dashoffset:0;stroke-opacity:1"
       inkscape:connector-curvature="0"
       d="m 102.60995,52.457052 h 0.85121 c -0.24796,1.115786 -0.31599,1.439333 -0.31599,1.942798 0,0.113392 0,0.315988 0.0605,0.573011 0.0756,0.331108 0.15875,0.376465 0.27214,0.376465 0.14817,0 0.30692,-0.13456 0.30692,-0.28575 0,-0.04536 0,-0.06199 -0.0454,-0.16631 -0.2162,-0.542774 -0.2162,-1.031119 -0.2162,-1.242785 0,-0.399143 0.0514,-0.807358 0.13304,-1.197429 h 0.86028 c 0.0968,0 0.3689,0 0.3689,-0.257024 0,-0.179917 -0.15875,-0.179917 -0.30238,-0.179917 h -2.52337 c -0.1648,0 -0.45055,0 -0.78165,0.355298 -0.26459,0.291798 -0.46113,0.639536 -0.46113,0.677333 0,0.0076 0,0.07257 0.0907,0.07257 0.0605,0 0.0756,-0.02721 0.12095,-0.0892 0.37041,-0.579059 0.80735,-0.579059 0.95552,-0.579059 h 0.43089 c -0.2419,0.910167 -0.6486,1.821845 -0.96459,2.506738 -0.062,0.113393 -0.062,0.130024 -0.062,0.181429 0,0.145143 0.12095,0.204107 0.22074,0.204107 0.22678,0 0.28575,-0.210155 0.37495,-0.489857 0.10734,-0.346227 0.10734,-0.361346 0.20411,-0.739322 z"
       id="path5722" />
    <path
       style="font-style:normal;font-variant:normal;font-weight:normal;font-stretch:normal;letter-spacing:normal;word-spacing:normal;text-anchor:start;fill:#000000;fill-opacity:1;fill-rule:evenodd;stroke:#000000;stroke-width:0;stroke-linecap:butt;stroke-linejoin:miter;stroke-miterlimit:10.43299961;stroke-dasharray:none;stroke-dashoffset:0;stroke-opacity:1"
       inkscape:connector-curvature="0"
       id="path7513"
       d="m 54.843398,87.9085 h 0.625928 c -0.08013,0.3175 -0.195036,0.79677 -0.195036,1.21255 0,0.21166 0.02873,0.35378 0.05897,0.4702 0.08467,0.26156 0.152702,0.28273 0.235857,0.28273 0.122464,0 0.247952,-0.11037 0.247952,-0.23586 0,-0.0423 -0.0091,-0.0635 -0.04233,-0.11642 -0.09979,-0.19503 -0.193524,-0.4959 -0.193524,-0.92831 0,-0.0983 0,-0.30843 0.07257,-0.68489 h 0.659191 c 0.09525,0 0.137583,0 0.193524,-0.0393 0.07408,-0.0544 0.09071,-0.13758 0.09071,-0.16329 0,-0.15421 -0.137583,-0.15421 -0.226787,-0.15421 h -1.98513 c -0.216202,0 -0.362857,0.0484 -0.601738,0.26912 -0.137583,0.12095 -0.343202,0.40519 -0.343202,0.45206 0,0.0635 0.06955,0.0635 0.09071,0.0635 0.05896,0 0.0635,-0.009 0.09374,-0.0559 0.269119,-0.37193 0.595691,-0.37193 0.710596,-0.37193 h 0.322035 c -0.163285,0.58208 -0.446012,1.20348 -0.604762,1.51946 -0.03024,0.068 -0.08467,0.17992 -0.09978,0.19806 -0.006,0.0212 -0.01663,0.0423 -0.01663,0.0801 0,0.0862 0.06501,0.16783 0.184452,0.16783 0.210155,0 0.269119,-0.23586 0.394607,-0.7106 z" />
    <polyline
       style="font-style:normal;font-variant:normal;font-weight:normal;font-stretch:normal;letter-spacing:normal;word-spacing:normal;text-anchor:start;fill:#000000;fill-opacity:1;fill-rule:nonzero;stroke:#000000;stroke-width:0;stroke-linecap:butt;stroke-linejoin:miter;stroke-miterlimit:10.43299961;stroke-dasharray:none;stroke-dashoffset:0;stroke-opacity:1"
       id="polyline7515"
       points="486,418 510.6,418 510.6,420.04 486,420.04 "
       transform="matrix(0.15119048,0,0,-0.15119048,-20.346652,154.19343)" />
    <path
       style="font-style:normal;font-variant:normal;font-weight:normal;font-stretch:normal;letter-spacing:normal;word-spacing:normal;text-anchor:start;fill:#000000;fill-opacity:1;fill-rule:evenodd;stroke:#000000;stroke-width:0;stroke-linecap:butt;stroke-linejoin:miter;stroke-miterlimit:10.43299961;stroke-dasharray:none;stroke-dashoffset:0;stroke-opacity:1"
       inkscape:connector-curvature="0"
       id="path7517"
       d="m 56.22679,94.41574 h -0.178404 c -0.01512,0.1149 -0.06955,0.42787 -0.137585,0.47927 -0.04082,0.0302 -0.446011,0.0302 -0.520094,0.0302 h -0.970643 c 0.553357,-0.48835 0.736298,-0.635 1.053798,-0.88295 0.390071,-0.31145 0.752928,-0.63803 0.752928,-1.13847 0,-0.63802 -0.556381,-1.02809 -1.232202,-1.02809 -0.653143,0 -1.096131,0.45811 -1.096131,0.94191 0,0.27064 0.226786,0.29634 0.281214,0.29634 0.123976,0 0.278191,-0.0907 0.278191,-0.2797 0,-0.0937 -0.0378,-0.27819 -0.311453,-0.27819 0.163286,-0.37345 0.521608,-0.48835 0.76956,-0.48835 0.527655,0 0.801309,0.40821 0.801309,0.83608 0,0.45811 -0.326571,0.82097 -0.495904,1.00996 l -1.268488,1.25488 c -0.05443,0.0469 -0.05443,0.059 -0.05443,0.20562 h 2.171095 z" />
    <path
       style="font-style:normal;font-variant:normal;font-weight:normal;font-stretch:normal;letter-spacing:normal;word-spacing:normal;text-anchor:start;fill:#000000;fill-opacity:1;fill-rule:evenodd;stroke:#000000;stroke-width:0;stroke-linecap:butt;stroke-linejoin:miter;stroke-miterlimit:10.43299961;stroke-dasharray:none;stroke-dashoffset:0;stroke-opacity:1"
       inkscape:connector-curvature="0"
       id="path6471"
       d="m 36.151076,15.053881 h 0.625928 c -0.08013,0.3175 -0.195036,0.79677 -0.195036,1.21255 0,0.21166 0.02873,0.35378 0.05896,0.4702 0.08467,0.26156 0.152702,0.28273 0.235857,0.28273 0.122464,0 0.247952,-0.11037 0.247952,-0.23586 0,-0.0423 -0.0091,-0.0635 -0.04233,-0.11642 -0.09979,-0.19503 -0.193524,-0.4959 -0.193524,-0.92831 0,-0.0983 0,-0.30843 0.07257,-0.68489 h 0.659191 c 0.09525,0 0.137583,0 0.193524,-0.0393 0.07408,-0.0544 0.09071,-0.13758 0.09071,-0.16329 0,-0.15421 -0.137583,-0.15421 -0.226786,-0.15421 h -1.985131 c -0.216202,0 -0.362857,0.0484 -0.601738,0.26912 -0.137583,0.12095 -0.343202,0.40519 -0.343202,0.45206 0,0.0635 0.06955,0.0635 0.09071,0.0635 0.05896,0 0.0635,-0.009 0.09374,-0.0559 0.269119,-0.37193 0.595691,-0.37193 0.710596,-0.37193 h 0.322035 c -0.163285,0.58208 -0.446012,1.20348 -0.604762,1.51946 -0.03024,0.068 -0.08467,0.17992 -0.09978,0.19806 -0.006,0.0212 -0.01663,0.0423 -0.01663,0.0801 0,0.0862 0.06501,0.16783 0.184452,0.16783 0.210155,0 0.269119,-0.23586 0.394607,-0.7106 z" />
    <path
       style="font-style:normal;font-variant:normal;font-weight:normal;font-stretch:normal;letter-spacing:normal;word-spacing:normal;text-anchor:start;fill:#000000;fill-opacity:1;fill-rule:evenodd;stroke:#000000;stroke-width:0;stroke-linecap:butt;stroke-linejoin:miter;stroke-miterlimit:10.43299961;stroke-dasharray:none;stroke-dashoffset:0;stroke-opacity:1"
       inkscape:connector-curvature="0"
       id="path6469"
       d="m 30.788348,19.344671 0.798286,-0.77561 c 1.173238,-1.03868 1.626809,-1.44538 1.626809,-2.19831 0,-0.86027 -0.677333,-1.46353 -1.596571,-1.46353 -0.852714,0 -1.410607,0.69548 -1.410607,1.36526 0,0.42182 0.377976,0.42182 0.399143,0.42182 0.130024,0 0.393095,-0.0907 0.393095,-0.39915 0,-0.19654 -0.13456,-0.39309 -0.399143,-0.39309 -0.05896,0 -0.07559,0 -0.09676,0.008 0.172357,-0.48986 0.57906,-0.76805 1.016,-0.76805 0.684893,0 1.009953,0.61232 1.009953,1.22918 0,0.60174 -0.377977,1.19743 -0.790727,1.66461 l -1.445381,1.61169 c -0.08618,0.0816 -0.08618,0.0968 -0.08618,0.27819 h 2.795512 l 0.211666,-1.31082 h -0.188988 c -0.0378,0.22678 -0.0892,0.55789 -0.164797,0.67128 -0.05443,0.059 -0.550334,0.059 -0.715131,0.059 z" />
    <path
       style="font-style:normal;font-variant:normal;font-weight:normal;font-stretch:normal;letter-spacing:normal;word-spacing:normal;text-anchor:start;fill:#000000;fill-opacity:1;fill-rule:evenodd;stroke:#000000;stroke-width:0;stroke-linecap:butt;stroke-linejoin:miter;stroke-miterlimit:10.43299961;stroke-dasharray:none;stroke-dashoffset:0;stroke-opacity:1"
       inkscape:connector-curvature="0"
       d="m 52.776052,10.719241 h 0.625929 c -0.08013,0.3175 -0.195036,0.79677 -0.195036,1.21255 0,0.21166 0.02721,0.35378 0.05896,0.4702 0.08467,0.26156 0.152703,0.28273 0.235857,0.28273 0.122465,0 0.247953,-0.11037 0.247953,-0.23586 0,-0.0423 -0.0091,-0.0635 -0.04233,-0.11642 -0.09978,-0.19503 -0.193523,-0.4959 -0.193523,-0.92831 0,-0.0983 0,-0.30843 0.07257,-0.68489 h 0.659191 c 0.09525,0 0.137583,0 0.193523,-0.0393 0.07408,-0.0544 0.09071,-0.13758 0.09071,-0.16329 0,-0.15421 -0.137584,-0.15421 -0.226786,-0.15421 h -1.985131 c -0.217714,0 -0.362857,0.0484 -0.601738,0.26912 -0.137583,0.12095 -0.343203,0.40519 -0.343203,0.45206 0,0.0635 0.06955,0.0635 0.09072,0.0635 0.05896,0 0.0635,-0.009 0.09374,-0.0559 0.269119,-0.37193 0.59569,-0.37193 0.710595,-0.37193 h 0.322036 c -0.163286,0.58208 -0.446012,1.20348 -0.604762,1.51946 -0.03024,0.068 -0.08467,0.17992 -0.09979,0.19806 -0.006,0.0212 -0.01663,0.0423 -0.01663,0.0801 0,0.0862 0.06501,0.16783 0.184453,0.16783 0.210154,0 0.269119,-0.23586 0.394607,-0.7106 z"
       id="path6297" />
    <path
       style="font-style:normal;font-variant:normal;font-weight:normal;font-stretch:normal;letter-spacing:normal;word-spacing:normal;text-anchor:start;fill:#000000;fill-opacity:1;fill-rule:evenodd;stroke:#000000;stroke-width:0;stroke-linecap:butt;stroke-linejoin:miter;stroke-miterlimit:10.43299961;stroke-dasharray:none;stroke-dashoffset:0;stroke-opacity:1"
       inkscape:connector-curvature="0"
       d="m 54.160958,17.226479 h -0.179917 c -0.01512,0.1149 -0.06803,0.42787 -0.137583,0.47927 -0.03931,0.0302 -0.446012,0.0302 -0.520095,0.0302 H 52.35272 c 0.553357,-0.48835 0.737809,-0.635 1.053797,-0.88295 0.390072,-0.31145 0.754441,-0.63803 0.754441,-1.13847 0,-0.63802 -0.557893,-1.02809 -1.233714,-1.02809 -0.651631,0 -1.096131,0.45811 -1.096131,0.94191 0,0.27064 0.226785,0.29634 0.281214,0.29634 0.125488,0 0.27819,-0.0907 0.27819,-0.2797 0,-0.0937 -0.0378,-0.27819 -0.311452,-0.27819 0.163286,-0.37345 0.521607,-0.48835 0.76956,-0.48835 0.527654,0 0.801309,0.40821 0.801309,0.83608 0,0.45811 -0.326571,0.82097 -0.495905,1.00996 l -1.268488,1.25488 c -0.05443,0.0469 -0.05443,0.059 -0.05443,0.20562 h 2.171095 z"
       id="path6301" />
    <path
       id="path5999"
       d="m 85.154345,32.316273 h 0.62593 c -0.08013,0.3175 -0.195036,0.796774 -0.195036,1.212547 0,0.211667 0.02721,0.353786 0.05896,0.470203 0.08467,0.261559 0.152703,0.282726 0.235857,0.282726 0.122465,0 0.247953,-0.110369 0.247953,-0.235857 0,-0.04233 -0.0091,-0.0635 -0.04233,-0.116417 -0.09979,-0.195036 -0.193523,-0.495905 -0.193523,-0.928309 0,-0.09827 0,-0.308429 0.07257,-0.684893 h 0.659191 c 0.09525,0 0.137583,0 0.193523,-0.03931 0.07408,-0.05443 0.09072,-0.137583 0.09072,-0.163285 -10e-7,-0.154215 -0.137584,-0.154215 -0.226787,-0.154215 h -1.985131 c -0.217714,0 -0.362857,0.04838 -0.601738,0.269119 -0.137583,0.120953 -0.343203,0.405191 -0.343203,0.45206 0,0.0635 0.06955,0.0635 0.09071,0.0635 0.05896,0 0.0635,-0.0091 0.09374,-0.05594 0.269119,-0.371928 0.59569,-0.371928 0.710596,-0.371928 h 0.322036 c -0.163286,0.582083 -0.446013,1.203476 -0.604763,1.519464 -0.03024,0.06804 -0.08467,0.179917 -0.09979,0.19806 -0.006,0.02117 -0.01663,0.04233 -0.01663,0.08013 0,0.08618 0.06501,0.167821 0.184453,0.167821 0.210154,0 0.269119,-0.235857 0.394607,-0.710595 z"
       inkscape:connector-curvature="0"
       style="font-style:normal;font-variant:normal;font-weight:normal;font-stretch:normal;letter-spacing:normal;word-spacing:normal;text-anchor:start;fill:#000000;fill-opacity:1;fill-rule:evenodd;stroke:#000000;stroke-width:0;stroke-linecap:butt;stroke-linejoin:miter;stroke-miterlimit:10.43299961;stroke-dasharray:none;stroke-dashoffset:0;stroke-opacity:1" />
    <polyline
       id="polyline6001"
       points="462,418 486.6,418 486.6,420.04 462,420.04 "
       style="font-style:normal;font-variant:normal;font-weight:normal;font-stretch:normal;letter-spacing:normal;word-spacing:normal;text-anchor:start;fill:#000000;fill-opacity:1;fill-rule:nonzero;stroke:#000000;stroke-width:0;stroke-linecap:butt;stroke-linejoin:miter;stroke-miterlimit:10.43299961;stroke-dasharray:none;stroke-dashoffset:0;stroke-opacity:1"
       transform="matrix(0.15119048,0,0,-0.15119048,13.738009,98.601202)" />
    <path
       id="path6003"
       d="m 84.670537,38.059999 v -0.08013 l 0.0015,-0.08013 0.003,-0.07862 0.003,-0.07711 0.006,-0.07559 0.0076,-0.07559 0.0091,-0.07408 0.0121,-0.07257 0.01361,-0.07106 0.01663,-0.06955 0.01966,-0.06804 0.02117,-0.06804 0.01361,-0.03175 0.01209,-0.03326 0.01361,-0.03175 0.01512,-0.03175 0.01512,-0.03175 0.01663,-0.03175 0.01814,-0.03024 0.01814,-0.03024 c 0.179916,-0.28575 0.462643,-0.479274 0.801309,-0.479274 0.157238,0 0.367393,0.04233 0.474738,0.182941 -0.133047,0.01058 -0.243416,0.09979 -0.243416,0.254 0,0.131535 0.0892,0.247952 0.247952,0.247952 0.157238,0 0.252488,-0.107345 0.252488,-0.258536 0,-0.306916 -0.22225,-0.580571 -0.743857,-0.580571 -0.758976,0 -1.533071,0.696988 -1.533071,1.827893 0,1.366762 0.642559,1.776488 1.223131,1.776488 0.642559,0 1.200452,-0.491369 1.200452,-1.180798 0,-0.668262 -0.532191,-1.164166 -1.149048,-1.164166 l -0.0257,0.148166 c 0.243416,0 0.406701,0.09525 0.536726,0.288774 0.127,0.201083 0.131535,0.423333 0.131535,0.727226 0,0.300869 0,0.521608 -0.140607,0.727227 -0.128512,0.184452 -0.296333,0.284238 -0.553357,0.284238 v 0 c -0.264584,0 -0.470203,-0.151191 -0.580572,-0.385536 -0.07862,-0.155726 -0.120952,-0.42031 -0.120952,-0.736298 0,-0.511024 0.306916,-0.905631 0.727227,-0.905631 l 0.0257,-0.148166 c -0.420309,0 -0.651631,0.27819 -0.766535,0.517071 z"
       inkscape:connector-curvature="0"
       style="font-style:normal;font-variant:normal;font-weight:normal;font-stretch:normal;letter-spacing:normal;word-spacing:normal;text-anchor:start;fill:#000000;fill-opacity:1;fill-rule:evenodd;stroke:#000000;stroke-width:0;stroke-linecap:butt;stroke-linejoin:miter;stroke-miterlimit:10.43299961;stroke-dasharray:none;stroke-dashoffset:0;stroke-opacity:1" />
    <path
       style="font-style:normal;font-variant:normal;font-weight:normal;font-stretch:normal;letter-spacing:normal;word-spacing:normal;text-anchor:start;fill:#000000;fill-opacity:1;fill-rule:evenodd;stroke:#000000;stroke-width:0;stroke-linecap:butt;stroke-linejoin:miter;stroke-miterlimit:10.43299961;stroke-dasharray:none;stroke-dashoffset:0;stroke-opacity:1"
       inkscape:connector-curvature="0"
       id="path6887"
       d="m 15.566058,52.1233 h 0.851203 c -0.247953,1.11578 -0.3175,1.43933 -0.3175,1.9428 0,0.11339 0,0.31598 0.06199,0.57301 0.07559,0.3311 0.15875,0.37646 0.272143,0.37646 0.148166,0 0.306916,-0.13456 0.306916,-0.28575 0,-0.0454 0,-0.062 -0.04536,-0.16631 -0.217714,-0.54277 -0.217714,-1.03112 -0.217714,-1.24278 0,-0.39915 0.05292,-0.80736 0.13456,-1.19743 h 0.860274 c 0.09676,0 0.368905,0 0.368905,-0.25703 0,-0.17991 -0.15875,-0.17991 -0.302381,-0.17991 h -2.52337 c -0.164798,0 -0.450548,0 -0.781655,0.3553 -0.264583,0.29179 -0.461131,0.63953 -0.461131,0.67733 0,0.008 0,0.0726 0.09071,0.0726 0.06048,0 0.07559,-0.0272 0.119441,-0.0892 0.371933,-0.57906 0.808874,-0.57906 0.957041,-0.57906 h 0.430892 c -0.241904,0.91016 -0.648607,1.82184 -0.964595,2.50674 -0.06199,0.11339 -0.06199,0.13002 -0.06199,0.18142 0,0.14515 0.120953,0.20411 0.220738,0.20411 0.226786,0 0.28575,-0.21015 0.374953,-0.48986 0.107345,-0.34622 0.107345,-0.36134 0.204107,-0.73932 z" />
    <path
       style="font-style:normal;font-variant:normal;font-weight:normal;font-stretch:normal;letter-spacing:normal;word-spacing:normal;text-anchor:start;fill:#000000;fill-opacity:1;fill-rule:evenodd;stroke:#000000;stroke-width:0;stroke-linecap:butt;stroke-linejoin:miter;stroke-miterlimit:10.43299961;stroke-dasharray:none;stroke-dashoffset:0;stroke-opacity:1"
       inkscape:connector-curvature="0"
       id="path6141"
       d="m 71.983493,17.531126 h 0.625929 c -0.08013,0.3175 -0.195036,0.79677 -0.195036,1.21255 0,0.21166 0.02721,0.35378 0.05896,0.4702 0.08467,0.26156 0.152703,0.28273 0.235857,0.28273 0.122465,0 0.247953,-0.11037 0.247953,-0.23586 0,-0.0423 -0.0091,-0.0635 -0.04233,-0.11642 -0.09978,-0.19503 -0.193523,-0.4959 -0.193523,-0.92831 0,-0.0983 0,-0.30843 0.07257,-0.68489 h 0.659191 c 0.09525,0 0.137583,0 0.193523,-0.0393 0.07408,-0.0544 0.09072,-0.13758 0.09072,-0.16329 0,-0.15421 -0.137584,-0.15421 -0.226786,-0.15421 H 71.52539 c -0.217714,0 -0.362857,0.0484 -0.601738,0.26912 -0.137583,0.12095 -0.343203,0.40519 -0.343203,0.45206 0,0.0635 0.06955,0.0635 0.09072,0.0635 0.05896,0 0.0635,-0.009 0.09374,-0.0559 0.269119,-0.37193 0.59569,-0.37193 0.710595,-0.37193 h 0.322036 c -0.163286,0.58208 -0.446012,1.20348 -0.604762,1.51946 -0.03024,0.068 -0.08467,0.17992 -0.09979,0.19806 -0.006,0.0212 -0.01663,0.0423 -0.01663,0.0801 0,0.0862 0.06501,0.16783 0.184453,0.16783 0.210154,0 0.269119,-0.23586 0.394607,-0.7106 z" />
    <path
       style="font-style:normal;font-variant:normal;font-weight:normal;font-stretch:normal;letter-spacing:normal;word-spacing:normal;text-anchor:start;fill:#000000;fill-opacity:1;fill-rule:evenodd;stroke:#000000;stroke-width:0;stroke-linecap:butt;stroke-linejoin:miter;stroke-miterlimit:10.43299961;stroke-dasharray:none;stroke-dashoffset:0;stroke-opacity:1"
       inkscape:connector-curvature="0"
       id="path6145"
       d="m 72.146779,23.237056 0.0378,0.002 0.0378,0.002 0.03629,0.005 0.03629,0.006 0.03477,0.008 0.03477,0.009 0.03326,0.0106 0.03175,0.0121 0.03175,0.0151 0.03175,0.0151 0.02873,0.0181 0.02873,0.0181 0.02721,0.0212 0.02721,0.0227 0.02419,0.0242 0.02419,0.0257 0.02268,0.0272 0.02268,0.0287 0.01966,0.0318 0.01966,0.0317 0.01663,0.0348 0.01663,0.0348 0.01512,0.0378 0.01361,0.0378 0.0121,0.0408 0.01058,0.0423 0.0091,0.0438 0.0076,0.0454 0.006,0.0469 0.0045,0.0484 0.0015,0.0514 0.0015,0.0514 c 0,0.65465 -0.381,0.84818 -0.684892,0.84818 -0.210155,0 -0.675822,-0.0575 -0.895048,-0.36891 0.244928,-0.009 0.303893,-0.184444 0.303893,-0.294814 0,-0.16782 -0.127,-0.28877 -0.290286,-0.28877 -0.146655,0 -0.294821,0.0907 -0.294821,0.3054 0,0.49591 0.547309,0.81643 1.185333,0.81643 0.731762,0 1.23825,-0.49137 1.23825,-1.01751 0,-0.41124 -0.335643,-0.82248 -0.916214,-0.94192 0.551845,-0.20108 0.752928,-0.59569 0.752928,-0.91773 0,-0.41577 -0.479274,-0.72722 -1.062869,-0.72722 -0.586619,0 -1.032631,0.28575 -1.032631,0.70606 0,0.17991 0.116417,0.2797 0.273655,0.2797 0.163286,0 0.267607,-0.12095 0.267607,-0.26761 0,-0.15421 -0.104321,-0.26458 -0.267607,-0.27365 0.184452,-0.23435 0.545798,-0.29029 0.742345,-0.29029 0.235857,0 0.569988,0.11491 0.569988,0.57301 0,0.22225 -0.07408,0.46416 -0.211666,0.62593 -0.173869,0.20109 -0.320524,0.21318 -0.585107,0.22679 -0.133048,0.0121 -0.14212,0.0121 -0.167822,0.0166 -0.0121,0 -0.05443,0.0106 -0.05443,0.0695 0,0.0726 0.04687,0.0726 0.137583,0.0726 z" />
    <path
       style="font-style:normal;font-variant:normal;font-weight:normal;font-stretch:normal;letter-spacing:normal;word-spacing:normal;text-anchor:start;fill:#000000;fill-opacity:1;fill-rule:evenodd;stroke:#000000;stroke-width:0;stroke-linecap:butt;stroke-linejoin:miter;stroke-miterlimit:10.43299961;stroke-dasharray:none;stroke-dashoffset:0;stroke-opacity:1"
       inkscape:connector-curvature="0"
       id="path5878"
       d="m 79.485383,24.4505 h 0.625929 c -0.08013,0.3175 -0.195036,0.79677 -0.195036,1.21255 0,0.21166 0.02721,0.35378 0.05896,0.4702 0.08467,0.26156 0.152703,0.28273 0.235857,0.28273 0.122465,0 0.247953,-0.11037 0.247953,-0.23586 0,-0.0423 -0.0091,-0.0635 -0.04233,-0.11642 -0.09978,-0.19503 -0.193523,-0.4959 -0.193523,-0.92831 0,-0.0983 0,-0.30843 0.07257,-0.68489 h 0.659191 c 0.09525,0 0.137583,0 0.193523,-0.0393 0.07408,-0.0544 0.09072,-0.13758 0.09072,-0.16329 0,-0.15421 -0.137584,-0.15421 -0.226786,-0.15421 H 79.02728 c -0.217714,0 -0.362857,0.0484 -0.601738,0.26912 -0.137583,0.12095 -0.343203,0.40519 -0.343203,0.45206 0,0.0635 0.06955,0.0635 0.09072,0.0635 0.05896,0 0.0635,-0.009 0.09374,-0.0559 0.269119,-0.37193 0.59569,-0.37193 0.710595,-0.37193 h 0.322036 c -0.163286,0.58208 -0.446012,1.20348 -0.604762,1.51946 -0.03024,0.068 -0.08467,0.17992 -0.09979,0.19806 -0.006,0.0212 -0.01663,0.0423 -0.01663,0.0801 0,0.0862 0.06501,0.16783 0.184453,0.16783 0.210154,0 0.269119,-0.23586 0.394607,-0.7106 z" />
    <path
       style="font-style:normal;font-variant:normal;font-weight:normal;font-stretch:normal;letter-spacing:normal;word-spacing:normal;text-anchor:start;fill:#000000;fill-opacity:1;fill-rule:evenodd;stroke:#000000;stroke-width:0;stroke-linecap:butt;stroke-linejoin:miter;stroke-miterlimit:10.43299961;stroke-dasharray:none;stroke-dashoffset:0;stroke-opacity:1"
       inkscape:connector-curvature="0"
       id="path5882"
       d="m 80.997288,31.05148 v -0.18899 h -0.586619 v -2.3495 c 0,-0.10886 0,-0.14666 -0.114905,-0.14666 -0.0635,0 -0.08467,0 -0.137583,0.0726 l -1.743226,2.42359 v 0.18899 h 1.549702 l 0.03629,-0.18899 h -1.392465 l 1.392465,-1.92768 v 1.92768 l -0.03629,0.18899 v 0.4324 c 0,0.17992 0,0.24342 -0.427869,0.24342 h -0.140607 v 0.18899 c 0.261559,-0.009 0.598714,-0.0212 0.787702,-0.0212 0.196548,0 0.532191,0.0121 0.796774,0.0212 v -0.18899 h -0.142119 c -0.427869,0 -0.427869,-0.0635 -0.427869,-0.24342 v -0.4324 z" />
  </g>
</svg>
