<?xml version="1.0" encoding="UTF-8" standalone="no"?>
<!-- Created with Inkscape (http://www.inkscape.org/) -->
<svg id="svg2" xmlns:rdf="http://www.w3.org/1999/02/22-rdf-syntax-ns#" xmlns="http://www.w3.org/2000/svg" height="431.86" width="504.99" version="1.1" enable-background="new" xmlns:cc="http://creativecommons.org/ns#" xmlns:dc="http://purl.org/dc/elements/1.1/">
 <defs id="defs4">
  <marker id="Arrow1Lend" refY="0" refX="0" orient="auto">
   <path id="path9122" d="M0,0,5-5-12.5,0,5,5,0,0z" fill-rule="evenodd" transform="matrix(-0.8,0,0,-0.8,-10,0)" stroke="#000" stroke-width="1pt"/>
  </marker>
 </defs>
 <metadata id="metadata7">
  <rdf:RDF>
   <cc:Work rdf:about="">
    <dc:format>image/svg+xml</dc:format>
    <dc:type rdf:resource="http://purl.org/dc/dcmitype/StillImage"/>
    <dc:title/>
   </cc:Work>
  </rdf:RDF>
 </metadata>
 <g id="layer2" stroke-linejoin="miter" transform="translate(-58.1375,-10)" stroke="#000" stroke-linecap="butt" stroke-dasharray="none" stroke-miterlimit="4" stroke-width="1" display="none" fill="none">
  <path id="path9983" d="m337.5,256.25,0-12.5"/>
  <path id="path9983-9-6" d="m267.5,253.12,0-6.25"/>
  <path id="path9983-9-6-0" d="m285,253.12,0-6.25"/>
  <path id="path9983-9-6-0-6" d="m302.5,253.12,0-6.25"/>
  <path id="path9983-9-6-0-6-6" d="m320,253.12,0-6.25"/>
  <path id="path9983-9-6-7" d="m355,253.12,0-6.25"/>
  <path id="path9983-9-6-0-9" d="m372.5,253.12,0-6.25"/>
  <path id="path9983-9-6-0-6-2" d="m390,253.12,0-6.25"/>
  <path id="path9983-9-6-0-6-6-0" d="m407.5,253.12,0-6.25"/>
  <path id="path9983-9-6-75" d="m180,253.12,0-6.25"/>
  <path id="path9983-9-6-0-92" d="m197.5,253.12,0-6.25"/>
  <path id="path9983-9-6-0-6-28" d="m215,253.12,0-6.25"/>
  <path id="path9983-9-6-0-6-6-9" d="m232.5,253.12,0-6.25"/>
  <path id="path9983-1-7" d="m162.5,256.25,0-12.5"/>
  <path id="path9983-9-6-1" d="m92.5,253.12,0-6.25"/>
  <path id="path9983-9-6-0-2" d="m110,253.12,0-6.25"/>
  <path id="path9983-9-6-0-6-9" d="m127.5,253.12,0-6.25"/>
  <path id="path9983-9-6-0-6-6-3" d="m145,253.12,0-6.25"/>
  <path id="path9983-9" d="m243.75,337.5,12.5,0"/>
  <path id="path9983-9-6-4" d="m246.88,267.5,6.25,0"/>
  <path id="path9983-9-6-0-7" d="m246.88,285,6.25,0"/>
  <path id="path9983-9-6-0-6-8" d="m246.88,302.5,6.25,0"/>
  <path id="path9983-9-6-0-6-6-4" d="m246.88,320,6.25,0"/>
  <path id="path9983-9-6-7-0" d="m246.88,355,6.25,0"/>
  <path id="path9983-9-6-0-9-3" d="m246.88,372.5,6.25,0"/>
  <path id="path9983-9-6-0-6-2-6" d="m246.88,390,6.25,0"/>
  <path id="path9983-9-6-0-6-6-0-1" d="m246.88,407.5,6.25,0"/>
  <path id="path9983-9-6-75-0" d="m246.88,180,6.25,0"/>
  <path id="path9983-9-6-0-92-6" d="m246.88,197.5,6.25,0"/>
  <path id="path9983-9-6-0-6-28-3" d="m246.88,215,6.25,0"/>
  <path id="path9983-9-6-0-6-6-9-2" d="m246.88,232.5,6.25,0"/>
  <path id="path9983-1-7-0" d="m243.75,162.5,12.5,0"/>
  <path id="path9983-9-6-1-6" d="m246.88,92.5,6.25,0"/>
  <path id="path9983-9-6-0-2-1" d="m246.88,110,6.25,0"/>
  <path id="path9983-9-6-0-6-9-5" d="m246.88,127.5,6.25,0"/>
  <path id="path9983-9-6-0-6-6-3-5" d="m246.88,145,6.25,0"/>
  <path id="path9983-9-6-0-6-6-0-4" d="m425,253.12,0-6.25"/>
 </g>
 <g id="layer1" transform="translate(-58.1375,-562.36218)">
  <path id="path8297" stroke-linejoin="round" d="m109.29,206.43c0,69.036-55.964,125-125,125s-125-55.964-125-125,55.964-125,125-125,125,55.964,125,125z" transform="matrix(1.4,0,0,1.4,272.00001,513.36218)" stroke-dashoffset="0" stroke="#000" stroke-linecap="round" stroke-miterlimit="4" stroke-dasharray="none" stroke-width="0.71428573" fill="none"/>
  <path id="path9077" stroke-linejoin="miter" style="marker-end:url(#Arrow1Lend);" d="m58.638,802.36,430.86,0" stroke="#000" stroke-linecap="butt" stroke-width="1px" fill="none"/>
  <path id="path9077-6" stroke-linejoin="miter" style="marker-end:url(#Arrow1Lend);" d="m250,993.72,0-430.86" stroke="#000" stroke-linecap="butt" stroke-width="1px" fill="none"/>
  <path id="path10203" stroke-linejoin="miter" d="m250,802.36,145.09-97.879" stroke="#000" stroke-linecap="butt" stroke-width="1px" fill="none"/>
  <path id="path10205" stroke-linejoin="miter" d="m395.09,704.48,0,97.879" stroke-dashoffset="0" stroke="#000" stroke-linecap="butt" stroke-miterlimit="4" stroke-dasharray="3, 3" stroke-width="1" fill="none"/>
  <path id="path10207" stroke-linejoin="miter" d="m395.09,704.48-145.09,0" stroke-dashoffset="0" stroke="#000" stroke-linecap="butt" stroke-miterlimit="4" stroke-dasharray="3, 3" stroke-width="1" fill="none"/>
  <path id="path4096" stroke-linejoin="miter" d="m250,152.12,0,97.879" transform="translate(0,552.36218)" stroke="#4e9a06" stroke-linecap="butt" stroke-miterlimit="4" stroke-dasharray="none" stroke-width="2" fill="none"/>
  <path id="path4098" stroke-linejoin="miter" d="M395.09,250,250,250" transform="translate(0,552.36218)" stroke="#ef2929" stroke-linecap="butt" stroke-miterlimit="4" stroke-dasharray="none" stroke-width="2" fill="none"/>
  <path id="path4880" d="m423.54,112.89c0,1.6568-1.3432,3-3,3-1.6569,0-3-1.3432-3-3,0-1.6569,1.3431-3,3-3,1.6568,0,3,1.3431,3,3z" fill-rule="nonzero" transform="translate(-25.446257,591.59612)" stroke="#000" fill="#FFF"/>
  <path id="path5787" stroke-linejoin="miter" d="m325.44,751.79,2.6722-2.1168" stroke="#000" stroke-linecap="butt" stroke-width="1px" fill="none"/>
  <g id="g5874" transform="matrix(0.75512628,0,0,0.75512628,179.02163,648.11363)">
   <g id="g7033" stroke-linejoin="miter" style="letter-spacing:normal;text-anchor:start;word-spacing:normal;" stroke-width="1" font-size-adjust="none" xml:space="preserve" stroke-dashoffset="0" stroke-linecap="butt" letter-spacing="normal" transform="matrix(0.61694646,0,0,-0.61694646,-107.96563,378.74025)" word-spacing="normal" stroke="#000" font-stretch="normal" stroke-miterlimit="10.43299961" font-variant="normal" stroke-dasharray="none" font-weight="normal" font-style="normal" fill="none"><path id="path5877" d="m470.16,438.09,0,0.05,0,0.06,0,0.05,0,0.05,0,0.05,0,0.05,0,0.04,0,0.05,0,0.04,0,0.04-0.01,0.04,0,0.04,0,0.04,0,0.03,0,0.04-0.01,0.03-0.01,0.07,0,0.06-0.02,0.05-0.01,0.05-0.02,0.05-0.02,0.04-0.02,0.04-0.02,0.03-0.03,0.03-0.03,0.03-0.04,0.03-0.04,0.02-0.04,0.02-0.03,0.01-0.02,0.01-0.03,0-0.02,0.01-0.03,0.01-0.03,0-0.03,0.01-0.03,0-0.04,0.01-0.03,0-0.04,0-0.03,0.01-0.04,0-0.04,0-0.05,0-0.04,0-0.04,0-0.05,0.01-0.05,0-0.05,0-0.05,0-0.05,0c-3.09-3.19-7.47-3.19-9.06-3.19v-1.55c1,0,3.93,0,6.51,1.3v-25.81c0-1.8-0.14-2.39-4.62-2.39h-1.6v-1.55c1.75,0.16,6.08,0.16,8.07,0.16,2,0,6.32,0,8.07-0.16v1.55h-1.59c-4.48,0-4.64,0.54-4.64,2.39z" stroke-width="0" fill="#000"/></g>
  </g>
  <path id="path13859-3" stroke-linejoin="round" d="m316.17,802.32c-0.0112-12.658-5.5871-23.91-10.527-30.321" stroke-dashoffset="0" stroke="#fcaf3e" stroke-linecap="round" stroke-miterlimit="4" stroke-dasharray="none" stroke-width="1" fill="none"/>
  <path id="path13805-0" d="m297.91,786.61,2.6549,0.17266-5.7576-3.7151,2.9299,6.2037z" fill-rule="evenodd" transform="matrix(1.4471203,0.14649004,-0.14649004,1.4471203,-10.231679,-409.95786)" fill="#fcaf3e"/>
  <text id="text5253" style="letter-spacing:0px;word-spacing:0px;" font-weight="normal" xml:space="preserve" font-size="40px" font-stretch="normal" line-height="125%" font-variant="normal" y="693.72467" x="399.63751" font-family="Serif" font-style="normal" fill="#000000"><tspan id="tspan5255" font-weight="normal" font-size="22px" font-style="normal" font-stretch="normal" font-variant="normal" y="693.72467" x="399.63751"><tspan id="tspan5257" font-family="Times New Roman" font-size="22px" font-style="italic">P </tspan>(<tspan id="tspan5263" font-family="Times New Roman" fill="#ef2929">cos </tspan><tspan id="tspan5259" font-size="22px" font-style="italic" font-family="Times New Roman" fill="#ef2929">θ</tspan>, <tspan id="tspan5267" font-family="Times New Roman" fill="#4e9a06">sin </tspan><tspan id="tspan5261" font-size="22px" font-style="italic" font-family="Times New Roman" fill="#4e9a06">θ</tspan>)</tspan></text>
  <text id="text5253-2" style="letter-spacing:0px;word-spacing:0px;" font-weight="normal" xml:space="preserve" font-size="40px" font-stretch="normal" line-height="125%" font-variant="normal" y="829.81995" x="307.04614" font-family="Serif" font-style="normal" fill="#000000"><tspan id="tspan5255-3" font-weight="normal" font-size="22px" font-style="normal" font-stretch="normal" font-variant="normal" y="829.81995" x="307.04614" font-family="Times New Roman" fill="#ef2929"><tspan id="tspan5263-6">cos </tspan><tspan id="tspan5259-1" font-size="22px" font-style="italic">θ</tspan></tspan></text>
  <text id="text5253-9" style="letter-spacing:0px;word-spacing:0px;" font-weight="normal" xml:space="preserve" font-size="40px" font-stretch="normal" line-height="125%" font-variant="normal" y="759.50983" x="198.4837" font-family="Serif" font-style="normal" fill="#000000"><tspan id="tspan5255-1" font-weight="normal" font-size="22px" font-style="normal" font-stretch="normal" font-variant="normal" y="759.50983" x="198.4837" font-family="Times New Roman" fill="#4e9a06"><tspan id="tspan5267-0">sin </tspan><tspan id="tspan5261-9" font-size="22px" font-style="italic">θ</tspan></tspan></text>
  <text id="text5253-4" style="letter-spacing:0px;word-spacing:0px;" font-weight="normal" xml:space="preserve" font-size="40px" font-stretch="normal" line-height="125%" font-variant="normal" y="784.00983" x="322.7337" font-family="Serif" font-style="normal" fill="#fcaf3e"><tspan id="tspan5255-9" font-weight="normal" font-size="22px" font-style="normal" font-stretch="normal" font-variant="normal" y="784.00983" x="322.7337" font-family="Times New Roman" fill="#fcaf3e"><tspan id="tspan5259-2" font-size="22px" font-style="italic" font-family="Times New Roman" fill="#fcaf3e">θ</tspan></tspan></text>
  <text id="text5253-2-5" style="letter-spacing:0px;word-spacing:0px;" font-weight="normal" xml:space="preserve" font-size="40px" font-stretch="normal" line-height="125%" font-variant="normal" y="822.71198" x="478.27863" font-family="Serif" font-style="normal" fill="#000000"><tspan id="tspan5255-3-3" font-weight="normal" font-size="22px" font-style="italic" font-stretch="normal" font-variant="normal" y="822.71198" x="478.27863" font-family="Times New Roman">x</tspan></text>
  <text id="text5253-2-5-4" style="letter-spacing:0px;word-spacing:0px;" font-weight="normal" xml:space="preserve" font-size="40px" font-stretch="normal" line-height="125%" font-variant="normal" y="577.4566" x="230.21172" font-family="Serif" font-style="normal" fill="#000000"><tspan id="tspan5255-3-3-7" font-weight="normal" font-size="22px" font-style="italic" font-stretch="normal" font-variant="normal" y="577.4566" x="230.21172" font-family="Times New Roman">y</tspan></text>
 </g>
 <g id="layer4" display="none">
  <path id="path4880-6-2" d="m423.54,112.89a3,3,0,1,1,-6,0,3,3,0,1,1,6,0z" fill-rule="nonzero" transform="translate(-228.67268,-47.886639)" stroke="#000" fill="#FFF"/>
  <path id="path4880-6" d="m423.54,112.89a3,3,0,1,1,-6,0,3,3,0,1,1,6,0z" fill-rule="nonzero" transform="translate(-53.672677,127.11334)" stroke="#000" fill="#FFF"/>
  <text id="text5253-1" style="letter-spacing:0px;word-spacing:0px;" font-weight="normal" xml:space="preserve" font-size="40px" font-stretch="normal" line-height="125%" font-variant="normal" y="228.91721" x="373.04199" font-family="Serif" font-style="normal" fill="#000000"><tspan id="tspan5255-4" font-weight="normal" font-size="20px" font-style="normal" font-stretch="normal" font-variant="normal" y="228.91721" x="373.04199" font-family="Times New Roman"><tspan id="tspan5257-0" font-family="Times New Roman" font-size="20px" font-style="italic">X <tspan id="tspan6295" font-style="normal">(1,0)</tspan></tspan></tspan></text>
  <text id="text5253-1-4" style="letter-spacing:0px;word-spacing:0px;" font-weight="normal" xml:space="preserve" font-size="40px" font-stretch="normal" line-height="125%" font-variant="normal" y="56.667206" x="198.2959" font-family="Serif" font-style="normal" fill="#000000"><tspan id="tspan5255-4-6" font-weight="normal" font-size="20px" font-style="normal" font-stretch="normal" font-variant="normal" y="56.667206" x="198.2959" font-family="Times New Roman"><tspan id="tspan5257-0-1" font-family="Times New Roman" font-size="20px" font-style="italic"><tspan id="tspan6295-5" font-style="normal">Y (1,0)</tspan></tspan></tspan></text>
 </g>
 <g id="layer3" font-size="40px" font-weight="normal" display="none" font-stretch="normal" font-variant="normal" font-style="normal" font-family="Serif">
  <text id="text5253-1-5" style="letter-spacing:0px;word-spacing:0px;" xml:space="preserve" line-height="125%" y="155.66721" x="372.7959" fill="#000000"><tspan id="tspan5255-4-4" font-weight="normal" font-size="18px" font-style="normal" font-stretch="normal" font-variant="normal" y="155.66721" x="372.7959" font-family="Times New Roman">≈ (0.82, 0.55)</tspan></text>
  <text id="text5253-1-5-6" style="letter-spacing:0px;word-spacing:0px;" xml:space="preserve" line-height="125%" y="285.18674" x="250.54492" fill="#ef2929"><tspan id="tspan5255-4-4-4" font-weight="normal" font-size="18px" font-style="normal" font-stretch="normal" font-variant="normal" y="285.18674" x="250.54492" font-family="Times New Roman" fill="#ef2929">≈ 0.82</tspan></text>
  <text id="text5253-1-5-3" style="letter-spacing:0px;word-spacing:0px;" xml:space="preserve" line-height="125%" y="218.68674" x="139.04492" fill="#4e9a06"><tspan id="tspan5255-4-4-0" font-weight="normal" font-size="18px" font-style="normal" font-stretch="normal" font-variant="normal" y="218.68674" x="139.04492" font-family="Times New Roman" fill="#4e9a06">≈ 0.55</tspan></text>
  <text id="text5253-1-5-0" style="letter-spacing:0px;word-spacing:0px;" xml:space="preserve" line-height="125%" y="220.18674" x="280.04492" fill="#fcaf3e"><tspan id="tspan5255-4-4-2" font-weight="normal" font-size="18px" font-style="normal" font-stretch="normal" font-variant="normal" y="220.18674" x="280.04492" font-family="Times New Roman" fill="#fcaf3e">= 34°</tspan></text>
 </g>
</svg>
